# xmcd
#
# Track frame offsets:
#	150
#	11484
#	23790
#	38686
#	49951
#	60276
#	72225
#	86045
#	98809
#	113969
#	125828
#
# Disc length: 1870 seconds
#
# Revision: 1
# Processed by: cddbd v1.5.2PL0 Copyright (c) Steve Scherf et al.
# Submitted via: audiograbber 1.83.01
#
DISCID=8e074c0b
DTITLE=Willie Nelson - Both Sides Now
DYEAR=1970
DGENRE=Country
TTITLE0=Crazy Arms
TTITLE1=Wabash Cannonball
TTITLE2=Pins And Needles (In My Heart)
TTITLE3=Who Do I Know n Dallas
TTITLE4=I Gotta Get Drunk
TTITLE5=Once More With Feeling
TTITLE6=Both Sides Now
TTITLE7=Bloody Mary Morning
TTITLE8=Everybody's Talkin
TTITLE9=One Has My Name (The Other Has My Heart)
TTITLE10=It Could Be Said That Way
EXTD=
EXTT0=
EXTT1=
EXTT2=
EXTT3=
EXTT4=
EXTT5=
EXTT6=
EXTT7=
EXTT8=
EXTT9=
EXTT10=
PLAYORDER=
